<?xml version="1.0" encoding="UTF-8"?>
<svg id="Calque_1" xmlns="http://www.w3.org/2000/svg" version="1.1" xmlns:xlink="http://www.w3.org/1999/xlink" viewBox="0 0 500 500">
  <!-- Generator: Adobe Illustrator 29.2.0, SVG Export Plug-In . SVG Version: 2.1.0 Build 108)  -->
  <defs>
    <style>
      .st0 {
        fill: #fff;
      }

      .st1 {
        fill: none;
      }

      .st2 {
        fill: #213147;
      }

      .st3 {
        fill: #12aaff;
      }

      .st4 {
        fill: #9dcced;
      }
    </style>
  </defs>
  <g id="Layer_x5F_1">
    <g id="_2405588477232">
      <rect class="st1" x="14" y="14" width="472" height="472"/>
      <g>
        <path class="st2" d="M56.7,157.5v185c0,11.9,6.2,22.7,16.6,28.7l160.3,92.5c10.2,5.9,22.8,5.9,33,0l160.3-92.5c10.2-5.9,16.6-16.8,16.6-28.7v-185c0-11.9-6.2-22.7-16.6-28.7l-160.3-92.5c-10.2-5.9-22.8-5.9-33,0l-160.3,92.5c-10.2,5.9-16.4,16.8-16.4,28.7h-.2Z"/>
        <g>
          <path class="st3" d="M284.9,285.9l-22.8,62.7c-.6,1.7-.6,3.6,0,5.5l39.3,107.8,45.5-26.2-54.6-149.7c-1.3-3.4-6-3.4-7.4,0Z"/>
          <path class="st3" d="M330.8,180.5c-1.3-3.4-6-3.4-7.4,0l-22.8,62.7c-.6,1.7-.6,3.6,0,5.5l64.4,176.5,45.5-26.2-79.7-218.3v-.2Z"/>
        </g>
        <path class="st4" d="M250,43.3c1.1,0,2.3.4,3.2.9l173.3,100.1c2.1,1.1,3.2,3.4,3.2,5.7v200.1c0,2.3-1.3,4.5-3.2,5.7l-173.3,100.1c-.9.6-2.1.9-3.2.9s-2.3-.4-3.2-.9l-173.3-100.1c-2.1-1.1-3.2-3.4-3.2-5.7v-200.3c0-2.3,1.3-4.5,3.2-5.7L246.8,44c.9-.6,2.1-.9,3.2-.9h0v.2ZM250,14c-6.2,0-12.3,1.5-17.9,4.7L58.7,118.8c-11.1,6.4-17.9,18.1-17.9,31v200.1c0,12.8,6.8,24.5,17.9,31l173.3,100.1c5.5,3.2,11.7,4.7,17.9,4.7s12.3-1.5,17.9-4.7l173.3-100.1c11.1-6.4,17.9-18.1,17.9-31v-200.1c0-12.8-6.8-24.5-17.9-31L267.7,18.7c-5.5-3.2-11.7-4.7-17.9-4.7h.2Z"/>
        <polygon class="st2" points="135.2 425.4 151.3 381.6 183.4 408.2 153.3 435.8 135.2 425.4"/>
        <g>
          <path class="st0" d="M235.3,135.6h-44c-3.2,0-6.2,2.1-7.4,5.1l-94.2,258.3,45.5,26.2,103.8-284.5c.9-2.6-.9-5.3-3.6-5.3l-.2.2Z"/>
          <path class="st0" d="M312.3,135.6h-44c-3.2,0-6.2,2.1-7.4,5.1l-107.6,294.9,45.5,26.2,117.1-321.1c.9-2.6-.9-5.3-3.6-5.3v.2Z"/>
        </g>
      </g>
    </g>
  </g>
</svg>