<?xml version="1.0" encoding="UTF-8"?>
<svg id="Calque_1" xmlns="http://www.w3.org/2000/svg" version="1.1" xmlns:xlink="http://www.w3.org/1999/xlink" viewBox="0 0 500 500">
  <!-- Generator: Adobe Illustrator 29.2.0, SVG Export Plug-In . SVG Version: 2.1.0 Build 108)  -->
  <defs>
    <style>
      .st0 {
        fill: #fff;
      }

      .st1 {
        fill: none;
      }

      .st2 {
        fill: url(#Dégradé_sans_nom);
      }

      .st3 {
        fill: #e84142;
        fill-rule: evenodd;
      }

      .st4 {
        clip-path: url(#clippath);
      }
    </style>
    <clipPath id="clippath">
      <circle class="st1" cx="250" cy="250" r="207.2"/>
    </clipPath>
    <linearGradient id="Dégradé_sans_nom" data-name="Dégradé sans nom" x1="266.8" y1="139.6" x2="738.8" y2="139.6" gradientTransform="translate(-204.3 -6.8) rotate(45) scale(1 -1)" gradientUnits="userSpaceOnUse">
      <stop offset="0" stop-color="#5700ff"/>
      <stop offset="0" stop-color="#6200f4"/>
      <stop offset=".4" stop-color="#8000d6"/>
      <stop offset=".7" stop-color="#b100a8"/>
      <stop offset="1" stop-color="#dd007f"/>
    </linearGradient>
  </defs>
  <circle class="st1" cx="250" cy="250" r="236"/>
  <g>
    <circle class="st0" cx="250" cy="250" r="207.2"/>
    <g class="st4">
      <rect class="st0" width="500" height="500"/>
    </g>
  </g>
  <path class="st2" d="M416.9,83.1c-92.2-92.2-241.6-92.2-333.8,0-92.2,92.2-92.2,241.6,0,333.8s241.6,92.2,333.8,0,92.2-241.6,0-333.8ZM103.5,396.5c-80.9-80.9-80.9-212.1,0-293,80.9-80.9,212.1-80.9,293,0,80.9,80.9,80.9,212.1,0,293s-212.1,80.9-293,0Z"/>
  <g>
    <path class="st3" d="M177.3,337.8h-49.1c-10.3,0-15.4,0-18.5-2-3.4-2.2-5.4-5.8-5.7-9.8-.2-3.7,2.4-8.1,7.5-17.1l121.2-213.6c5.2-9.1,7.8-13.6,11.1-15.3,3.5-1.8,7.8-1.8,11.3,0,3.3,1.7,5.9,6.2,11.1,15.3l24.9,43.5v.2c5.7,9.7,8.5,14.7,9.8,19.8,1.4,5.7,1.4,11.6,0,17.3-1.2,5.2-4,10.2-9.7,20.1l-63.7,112.5-.2.3c-5.6,9.8-8.4,14.8-12.4,18.5-4.3,4.1-9.4,7.1-15.1,8.8-5.2,1.4-10.9,1.4-22.5,1.4Z"/>
    <path class="st3" d="M301.3,337.8h70.3c10.4,0,15.6,0,18.7-2,3.4-2.2,5.5-5.8,5.7-9.8.2-3.5-2.3-7.8-7.2-16.3-.2-.3-.3-.6-.5-.9l-35.2-60.3-.4-.7c-5-8.4-7.4-12.6-10.7-14.2-3.5-1.8-7.7-1.8-11.2,0-3.2,1.7-5.8,6.1-11,15l-35.1,60.3v.2c-5.3,8.9-7.8,13.3-7.6,16.9.2,4,2.3,7.6,5.7,9.8,3,2,8.3,2,18.6,2Z"/>
  </g>
</svg>