<?xml version="1.0" encoding="UTF-8"?>
<svg id="Calque_1" xmlns="http://www.w3.org/2000/svg" version="1.1" xmlns:xlink="http://www.w3.org/1999/xlink" viewBox="0 0 500 500">
  <!-- Generator: Adobe Illustrator 29.2.0, SVG Export Plug-In . SVG Version: 2.1.0 Build 108)  -->
  <defs>
    <style>
      .st0 {
        fill: #fff;
      }

      .st1 {
        fill: #1969ff;
      }
    </style>
  </defs>
  <g id="circle">
    <g id="Fantom-circle">
      <circle id="Oval" class="st0" cx="250" cy="250" r="236"/>
      <path id="Shape" class="st1" d="M235.7,89c7.9-4.2,20.1-4.2,28,0l81.1,42.8c4.8,2.5,7.4,6.3,7.9,10.2h0v215c0,4.2-2.8,8.4-8,11.2l-81.1,42.8c-7.9,4.2-20.1,4.2-28,0l-81.1-42.8c-5.2-2.7-7.7-7-7.8-11.2v-214.9h0c.4-3.9,2.9-7.6,7.7-10.2l81.1-42.8ZM339.9,261.5l-76.2,40.3c-7.9,4.2-20,4.2-28,0l-76.1-40.2v94.7l76.1,40c4.5,2.4,9.2,4.7,13.7,4.8h.3c4.6,0,8.9-2.3,13.4-4.5l76.8-40.7v-94.4ZM134,352.3c0,8.3,1,13.6,2.8,17.5,1.6,3.2,3.9,5.6,8.2,8.5l.2.2c.9.6,2,1.3,3.2,2.1l1.5.9,4.6,2.8-6.5,10.9-5.1-3.1-.9-.6c-1.5-.9-2.7-1.7-3.8-2.5-12.2-8.3-16.7-17.3-16.8-36.2v-.6h12.6ZM243.5,204.4c-.6.2-1.2.5-1.7.7l-81,42.9c0,0-.2,0-.2.1h0s.1.1.1.1h.2c0,0,81,43,81,43,.5.3,1.1.5,1.7.7v-87.6h0ZM256.5,204.4v87.6c.6-.2,1.2-.5,1.7-.7l81-42.9c0,0,.2,0,.2-.1h0s-.1-.1-.1-.1h-.2c0,0-81-43-81-43-.5-.2-1-.5-1.6-.7ZM339.9,157.4l-72.8,38.3,72.8,38.3v-76.5ZM159.7,157.4v76.5l72.8-38.3-72.8-38.3ZM258,100.5c-4.2-2.2-11.8-2.2-16,0l-81.1,42.9c0,0-.2,0-.2.1h0s.1.1.1.1h.2c0,0,81.1,43,81.1,43,4.2,2.2,11.8,2.2,16,0l81.1-42.9c0,0,.2,0,.2-.1h0s-.1-.1-.1-.1h-.2c0,0-81-43-81-43ZM352,104.8l5.1,3.1.9.6c1.5.9,2.7,1.7,3.8,2.5,12.2,8.3,16.7,17.3,16.8,36.2v.6h-12.6c0-8.3-1-13.6-2.8-17.5-1.6-3.2-3.9-5.6-8.2-8.5l-.2-.2c-.9-.6-2-1.3-3.2-2.1l-1.5-.9-4.6-2.8,6.5-10.9Z"/>
    </g>
  </g>
</svg>