<?xml version="1.0" encoding="UTF-8"?>
<svg id="Calque_1" data-name="Calque 1" xmlns="http://www.w3.org/2000/svg" version="1.1" xmlns:xlink="http://www.w3.org/1999/xlink" viewBox="0 0 500 500">
  <defs>
    <style>
      .cls-1 {
        fill: #2a373f;
      }

      .cls-1, .cls-2, .cls-3 {
        stroke-width: 0px;
      }

      .cls-2 {
        fill: none;
      }

      .cls-4 {
        clip-path: url(#clippath);
      }

      .cls-3 {
        fill: #fff;
      }
    </style>
    <clipPath id="clippath">
      <circle class="cls-2" cx="250" cy="250" r="207.2"/>
    </clipPath>
  </defs>
  <rect class="cls-3" width="500" height="500"/>
  <g class="cls-4">
    <rect class="cls-1" width="500" height="500"/>
  </g>
  <g>
    <g>
      <path class="cls-3" d="M367.5,308.7h-29.8c-4.3,0-8.4,1.9-11.2,5.2-10.2,12.1-21.5,19.7-29,23.9h0s0,0,0,0c-18.4,9.9-36.4,12-47.8,12.1h0c-40.9,0-66.5-24.2-75.4-34.2,0,0,0,0,0,0-1-1.5-2.1-2.9-3.4-4.2-10.5-10.5-27.4-10.5-37.9,0-10.5,10.5-10.5,27.4,0,37.9h0c26.3,30.9,63.8,50.2,104.5,53.4h0c35.7,2.9,71.2-6.8,100.4-27.3,16.9-11.8,31.2-27,42.1-44.5,6.1-9.7-.8-22.3-12.3-22.3Z"/>
      <path class="cls-3" d="M399,215.1v-.2c-.2-.6-.3-1.2-.5-1.7v-.3c-.2-.5-.3-1-.5-1.5l-.2-.7c-.1-.4-.2-.8-.3-1.2l-.3-.9-.3-1c-.1-.4-.2-.8-.3-1.2l-.2-.6c-.1-.5-.3-1-.5-1.5v-.3c-6.2-19.4-16.2-37.6-29.7-53.4h0c-.2-.3-.5-.6-.7-.8l-.4-.5c-28.9-33.1-70.8-52.6-115.6-52.6-45.4,0-87.9,20-116.8,53.9h0c-10.5,10.5-10.4,27.5,0,37.9,10.5,10.5,27.4,10.5,37.9,0,1.3-1.3,2.5-2.7,3.4-4.2,0,0,0,0,0,0,8.9-10,34.5-34.2,75.4-34.2,36.9,0,61.4,19.7,72.3,30.9,2.3,2.4,4.4,4.8,6.3,7.3.2.2.3.3.2.3h0c1.8,2.3,3.5,4.6,5,7h0c1.2,1.9,2.4,3.8,3.4,5.7.2.4.4.7.6,1.1v.2c.5.7.8,1.4,1.2,2.1,4.9,9.7-2.2,21.1-13,21.1h-35.2c-.3,0-.6-.1-.7-.4-8.3-13.5-23.3-22.5-40.3-22.5-17.2,0-32.3,9.2-40.6,23-4,6.7-6.4,14.4-6.7,22.7-.3,9.5,2.2,18.4,6.8,26,8.3,13.8,23.5,23.1,40.8,23,16.9-.1,31.7-9.1,39.9-22.5.1-.2.4-.4.7-.4h56.1s41.4,0,41.4,0h0c7.7,0,14-5.9,14.6-13.6,1.1-15.2-.1-30.7-3.6-45.7Z"/>
    </g>
    <path class="cls-3" d="M153.1,225.7h-31.8c-13.4,0-24.3,10.9-24.3,24.3h0c0,13.4,10.9,24.3,24.3,24.3h31.8c-1.9-7.8-3-15.9-3-24.3s1-16.5,3-24.3Z"/>
  </g>
</svg>