<?xml version="1.0" encoding="UTF-8"?>
<svg id="Calque_1" xmlns="http://www.w3.org/2000/svg" version="1.1" xmlns:xlink="http://www.w3.org/1999/xlink" viewBox="0 0 500 500">
  <!-- Generator: Adobe Illustrator 29.2.0, SVG Export Plug-In . SVG Version: 2.1.0 Build 108)  -->
  <defs>
    <style>
      .st0 {
        fill: #345d9d;
      }

      .st1 {
        fill: #fff;
      }
    </style>
  </defs>
  <circle class="st1" cx="250" cy="250" r="210.2"/>
  <path class="st0" d="M250,14.3C119.8,14.3,14.3,119.8,14.3,250s105.5,235.7,235.7,235.7,235.7-105.5,235.7-235.7h0c.4-129.8-104.5-235.3-234.3-235.7,0,0,0,0,0,0h-1.4ZM254,258l-24.5,82.7h131.3c3.7-.1,6.7,2.7,6.8,6.4,0,0,0,0,0,0v2.2l-11.4,39.4c-1,3.8-4.6,6.4-8.6,6.3h-200.9l33.7-114.7-37.7,11.4,8.6-26.3,37.7-11.4,47.4-160.9c1.1-3.8,4.6-6.4,8.6-6.3h50.8c3.7-.1,6.7,2.7,6.8,6.4h0v2.2l-39.9,135.8,37.7-11.4-8,27.4-38.2,10.8Z"/>
</svg>