<?xml version="1.0" encoding="UTF-8"?>
<svg id="Calque_1" xmlns="http://www.w3.org/2000/svg" version="1.1" xmlns:xlink="http://www.w3.org/1999/xlink" viewBox="0 0 500 500">
  <!-- Generator: Adobe Illustrator 29.2.0, SVG Export Plug-In . SVG Version: 2.1.0 Build 108)  -->
  <defs>
    <style>
      .st0 {
        fill: #fff;
      }

      .st1 {
        fill: #e84142;
        fill-rule: evenodd;
      }
    </style>
  </defs>
  <rect class="st0" x="104" y="94.8" width="291.6" height="265.2"/>
  <path class="st1" d="M486,250c0,130.3-105.7,236-236,236S14,380.3,14,250,119.7,14,250,14s236,105.7,236,236ZM183.1,343.9h-45.8c-9.6,0-14.4,0-17.3-1.9-3.1-2-5-5.4-5.3-9.1-.2-3.4,2.2-7.6,7-15.9l113.1-199.3c4.8-8.5,7.2-12.7,10.3-14.3,3.3-1.7,7.2-1.7,10.6,0,3.1,1.6,5.5,5.8,10.3,14.3l23.2,40.6v.2c5.3,9.1,8,13.7,9.1,18.5,1.3,5.3,1.3,10.8,0,16.1-1.2,4.9-3.8,9.5-9,18.7l-59.4,105-.2.3c-5.2,9.2-7.9,13.8-11.6,17.3-4,3.8-8.8,6.6-14.1,8.2-4.8,1.3-10.2,1.3-21,1.3ZM298.8,343.9h65.6c9.7,0,14.6,0,17.5-1.9,3.1-2,5.1-5.5,5.3-9.2.2-3.3-2.2-7.3-6.7-15.2-.2-.3-.3-.5-.5-.8l-32.9-56.2-.4-.6c-4.6-7.8-7-11.8-9.9-13.3-3.3-1.7-7.2-1.7-10.5,0-3,1.6-5.4,5.7-10.3,14l-32.8,56.2v.2c-4.9,8.3-7.3,12.4-7.1,15.8.2,3.7,2.1,7.1,5.3,9.2,2.8,1.9,7.7,1.9,17.4,1.9Z"/>
</svg>